<?xml version="1.0" standalone="no"?>
<!DOCTYPE svg PUBLIC "-//W3C//DTD SVG 20010904//EN"
 "http://www.w3.org/TR/2001/REC-SVG-20010904/DTD/svg10.dtd">
<svg version="1.0" xmlns="http://www.w3.org/2000/svg"
 width="512.000000pt" height="512.000000pt" viewBox="0 0 512.000000 512.000000"
 preserveAspectRatio="xMidYMid meet">

<g transform="translate(0.000000,512.000000) scale(0.100000,-0.100000)"
fill="#000000" stroke="none">
<path d="M1375 4786 c-94 -41 -124 -168 -58 -247 53 -63 -40 -59 1515 -59
l1423 0 -1962 -1962 c-1755 -1757 -1962 -1967 -1968 -2000 -11 -61 3 -108 44
-149 41 -41 88 -55 149 -44 33 6 243 213 1999 1968 l1963 1962 2 -1437 c3
-1433 3 -1437 24 -1464 39 -53 71 -69 134 -69 63 0 95 16 134 69 l21 27 0
1659 0 1659 -21 27 c-11 15 -33 37 -48 48 -27 21 -28 21 -1674 23 -1354 2
-1652 0 -1677 -11z" fill="white"/>
</g>
</svg>
